<svg width="350" height="180" viewBox="0 0 350 180" fill="none" xmlns="http://www.w3.org/2000/svg">
<path d="M171.5 30C194.546 30 214.188 39.1254 221.716 51.9199C226.465 50.6805 231.617 50 237 50C260.748 50 280 63.2076 280 79.5C280 79.6778 279.995 79.8552 279.99 80.0322C302.815 80.7456 321 93.6652 321 109.5C321 125.509 302.413 138.537 279.236 138.986C243.88 146.392 132.426 139.5 112.5 139.5C100.122 139.5 82.5819 140.256 68.623 138.676C67.4644 138.558 66.3209 138.408 65.1943 138.228C59.7819 137.416 55.0845 136.175 51.6914 134.293C39.8429 129.04 32 119.899 32 109.5C32 95.3248 46.5735 83.4863 66.002 80.6484C66.0016 80.599 66 80.5495 66 80.5C66 64.2076 85.2518 51 109 51C113.211 51 117.281 51.4172 121.127 52.1914C128.535 39.2547 148.291 30 171.5 30Z" fill="white"/>
</svg>
